<?xml version="1.0" standalone="no"?><!DOCTYPE svg PUBLIC "-//W3C//DTD SVG 1.1//EN" "http://www.w3.org/Graphics/SVG/1.1/DTD/svg11.dtd"><svg t="1618554336117" class="icon" viewBox="0 0 1024 1024" version="1.1" xmlns="http://www.w3.org/2000/svg" p-id="2207" data-spm-anchor-id="a313x.7781069.0.i0" xmlns:xlink="http://www.w3.org/1999/xlink" width="200" height="200"><defs><style type="text/css"></style></defs><path d="M199.138968 511.455601c0-37.065174 30.340005-67.042929 67.676355-67.042929 37.33635 0 67.676355 29.977755 67.676355 67.042929 0 37.062104-30.338982 67.223031-67.676355 67.223031C229.478973 578.678632 199.138968 548.518728 199.138968 511.455601zM490.017848 802.335505c-37.066197 0-67.135026-30.160927-67.135026-67.589374 0-37.427424 30.068829-67.768453 67.135026-67.768453 37.153178 0 67.222007 30.340005 67.222007 67.768453C557.240879 772.174578 527.171026 802.335505 490.017848 802.335505zM535.346219 511.455601c0 25.255197-20.25737 45.603641-45.24139 45.603641-25.071002 0-45.328371-20.348444-45.328371-45.603641 0-25.254174 20.256346-45.602617 45.328371-45.602617C515.08885 465.852984 535.346219 486.201427 535.346219 511.455601zM422.882821 288.167119c0-37.249369 30.068829-67.589374 67.135026-67.589374 37.153178 0 67.222007 30.338982 67.222007 67.589374 0 37.423331-30.069853 67.76743-67.222007 67.76743C452.951651 355.934548 422.882821 325.59045 422.882821 288.167119zM713.307354 578.678632c-37.33635 0-67.681472-30.160927-67.681472-67.223031 0-37.065174 30.344099-67.042929 67.681472-67.042929 37.423331 0 67.676355 29.977755 67.676355 67.042929C780.983709 548.518728 750.731708 578.678632 713.307354 578.678632zM925.061129 936.234097c-8.81169 0-16.808828-3.631714-22.800285-9.267061l-1.000793 0.728594c-31.251771-36.337603-77.396741-59.592236-129.08803-59.592236-34.700313 0-66.86078 10.536984-93.746104 28.340465 0-0.545422-0.185218-1.087774-0.185218-1.632173-41.059138 20.165272-82.210373 30.885428-117.185956 36.516682 0.271176-0.546446 0.453325-1.087774 0.63752-1.454118-23.25668 3.997034-47.056736 6.721075-71.587432 6.721075-234.555084 0-424.777473-190.039217-424.777473-424.594301 0-234.555084 190.222389-424.598394 424.777473-424.598394 234.648205 0 424.781566 190.043311 424.781566 424.598394 0 62.862723-13.989619 122.092709-38.427194 175.687348-1.182942 5.635347-3.544733 10.721179-7.17747 14.898315-0.452301 0.912789-0.816598 1.819438-1.274016 2.727111l-0.541329-0.36225c-6.087649 5.814426-14.262842 9.445116-23.255657 9.445116-18.624173 0-33.612539-14.898315-33.612539-33.43039 0-4.360308 0.906649-8.537444 2.543939-12.356422l-1.907443-1.269923c22.889313-47.235814 36.154431-99.926874 36.154431-155.884326 0-197.309808-159.974481-357.192192-357.372294-357.192192-197.310831 0-357.284289 159.882384-357.284289 357.192192 0 197.310831 159.974481 357.194238 357.284289 357.194238 65.131393 0 125.906571-17.626449 178.502463-47.965431l-0.091074 5.631254c31.159674-15.080463 65.952084-23.802102 102.926184-23.802102 65.768913 0 125.182071 26.891464 167.966503 70.312392 11.357675 5.452175 19.348674 16.71673 19.348674 29.977755C958.670597 921.336806 943.681208 936.234097 925.061129 936.234097z" p-id="2208" fill="#BDCBD9"></path></svg>